<svg viewBox="-10 0 78 78" height="38" width="38" fill="none" xmlns="http://www.w3.org/2000/svg">
<g clip-path="url(#clip0)">
<path fill-rule="evenodd" clip-rule="evenodd" d="M51.2507 7.2729C46.0502 2.51481 38.3668 0 29.0315 0H10.7496H4.55319H0V4.49806V11.6717V40.1336C9.1639 40.1066 16.573 36.609 18.5289 35.5936L20.5329 29.7248L33.2198 22.267L18.4126 28.0165L10.6369 22.0856L46.0055 15.5102L30.7329 37.4655L24.6736 32.9416L19.0495 37.446C16.6201 40.389 9.9646 47.4518 0 50.3633V76.726C0.113888 76.8987 19.7729 76.707 19.8763 76.726V52.5239H28.9223C38.2419 52.5239 45.9276 50.0441 51.1461 45.3526C56.2408 40.7742 58.9335 34.1907 58.9335 26.3156C58.9335 18.4561 56.2763 11.8714 51.2507 7.2729Z" fill="#00E796"/>
</g>
</svg>
